<?xml version="1.0" encoding="UTF-8"?>
<svg width="150px" height="150px" viewBox="0 0 150 150" version="1.1" xmlns="http://www.w3.org/2000/svg" xmlns:xlink="http://www.w3.org/1999/xlink">
    <!-- Generator: Sketch 63.1 (92452) - https://sketch.com -->
    <title>Combined Shape</title>
    <desc>Created with Sketch.</desc>
    <g id="Page-1" stroke="none" stroke-width="1" fill="none" fill-rule="evenodd">
        <path d="M75,0 C116.421356,0 150,33.5786438 150,75 C150,116.421356 116.421356,150 75,150 C33.5786438,150 0,116.421356 0,75 C0,33.5786438 33.5786438,0 75,0 Z M111.766931,48.9010578 C103.23562,50.6678578 97.2391434,51.60711 93.7775005,51.7188144 C81.8263434,52.1044685 73.8418091,50.3158583 69.0596354,51.3509154 C45.7728181,56.3911308 41.1115147,83.3135852 40.5240031,87.6343755 C40.4396433,88.2548616 49.1442902,80.9894381 59.0181,77.3814354 C60.7818874,76.7369274 68.6718211,75.1600827 71.9176396,74.5708706 C75.1634582,73.9816584 77.6899699,72.6927888 77.583184,71.4311376 C77.4763981,70.1694864 73.5564916,67.4270425 74.9361915,66.1357241 C75.8559915,65.2748452 83.1234244,65.2218769 96.7384903,65.9768193 C88.9514589,79.4429652 84.4714746,86.0715121 83.2985375,85.8624601 C81.5391318,85.548882 82.1409487,80.904289 80.9528126,79.3694851 C79.7646765,77.8346811 78.2137044,78.9439205 72.9990102,79.1540463 C67.784316,79.3641721 65.2016877,79.814602 60.6804684,81.3029549 C55.8592972,82.8900499 50.6450455,86.5571488 46.794969,88.950737 C35.6942528,95.8520397 33.2416329,101.657009 34.3083513,103.552586 C36.0191377,106.592684 39.2555073,97.881966 45.8540131,96.7533292 C50.8701327,95.8953506 54.7390931,102.262488 63.0134491,103.045268 C83.6084703,104.993624 100.112584,91.8425566 105.725453,78.9100876 C109.467365,70.2884415 111.481191,60.2854316 111.766931,48.9010578 Z" id="Combined-Shape" fill="#42D227"></path>
    </g>
</svg>